<?xml version="1.0" encoding="UTF-8"?>
<svg width="22px" height="16px" viewBox="0 0 22 16" version="1.1" xmlns="http://www.w3.org/2000/svg" xmlns:xlink="http://www.w3.org/1999/xlink">
    <!-- Generator: Sketch 52.6 (67491) - http://www.bohemiancoding.com/sketch -->
    <title>menu</title>
    <desc>Created with Sketch.</desc>
    <g id="-Symbols" stroke="none" stroke-width="1" fill="none" fill-rule="evenodd">
        <g id="UI/Navigation/Menu" transform="translate(-2.000000, -26.000000)" fill="#4E5B65">
            <g id="menu" transform="translate(2.000000, 26.000000)">
                <path d="M21.1113203,6.75975781 L0.888679687,6.75975781 C0.397890625,6.75975781 0,7.15760547 0,7.6484375 C0,8.13926953 0.397890625,8.53711719 0.888679687,8.53711719 L21.1113203,8.53711719 C21.6021523,8.53711719 22,8.13926953 22,7.6484375 C22,7.15764844 21.6021523,6.75975781 21.1113203,6.75975781 Z" id="Path"></path>
                <path d="M21.1113203,0.0188632812 L0.888679687,0.0188632812 C0.397890625,0.0188632812 0,0.416753906 0,0.907542969 C0,1.39833203 0.397890625,1.79622266 0.888679687,1.79622266 L21.1113203,1.79622266 C21.6021523,1.79622266 22,1.39833203 22,0.907542969 C22,0.416753906 21.6021523,0.0188632812 21.1113203,0.0188632812 Z" id="Path"></path>
                <path d="M21.1113203,13.5006523 L0.888679687,13.5006523 C0.397890625,13.5006523 0,13.8984999 0,14.3893318 C0,14.8801638 0.397890625,15.2780113 0.888679687,15.2780113 L21.1113203,15.2780113 C21.6021523,15.2780113 22,14.8801638 22,14.3893318 C22,13.8984999 21.6021523,13.5006523 21.1113203,13.5006523 Z" id="Path"></path>
            </g>
        </g>
    </g>
</svg>