<?xml version="1.0" encoding="UTF-8"?>
<svg width="18px" height="18px" viewBox="0 0 18 18" version="1.1" xmlns="http://www.w3.org/2000/svg" xmlns:xlink="http://www.w3.org/1999/xlink">
    <!-- Generator: Sketch 52.6 (67491) - http://www.bohemiancoding.com/sketch -->
    <title>search</title>
    <desc>Created with Sketch.</desc>
    <g id="-Symbols" stroke="none" stroke-width="1" fill="none" fill-rule="evenodd">
        <g id="UI/Navigation/Search" transform="translate(-63.000000, -25.000000)" fill="#4E5B65" fill-rule="nonzero">
            <path d="M75.8355705,36.295302 L75.014094,36.295302 L74.7060805,35.9872483 C75.7329262,34.8577181 76.3490336,33.3174497 76.3490336,31.6744966 C76.3489933,27.9778523 73.3711409,25 69.6744966,25 C65.9778523,25 63,27.9778523 63,31.6744966 C63,35.3711409 65.9778523,38.3489933 69.6744966,38.3489933 C71.3174497,38.3489933 72.8577181,37.7328859 73.9872483,36.7060403 L74.295302,37.0140537 L74.295302,37.8355302 L79.4295302,42.9697987 L80.9697987,41.4295302 L75.8355705,36.295302 Z M69.6744966,36.295302 C67.1073826,36.295302 65.0536913,34.2416107 65.0536913,31.6744966 C65.0536913,29.1073826 67.1073826,27.0536913 69.6744966,27.0536913 C72.2416107,27.0536913 74.295302,29.1073826 74.295302,31.6744966 C74.295302,34.2416107 72.2416107,36.295302 69.6744966,36.295302 Z" id="search"></path>
        </g>
    </g>
</svg>