<?xml version="1.0" encoding="UTF-8"?>
<svg width="158px" height="35px" viewBox="0 0 158 35" version="1.1" xmlns="http://www.w3.org/2000/svg" xmlns:xlink="http://www.w3.org/1999/xlink">
    <!-- Generator: Sketch 52.6 (67491) - http://www.bohemiancoding.com/sketch -->
    <title>logo-white</title>
    <desc>Created with Sketch.</desc>
    <g id="-Symbols" stroke="none" stroke-width="1" fill="none" fill-rule="evenodd">
        <g id="UI/Dark/Navbar" transform="translate(-643.000000, -30.000000)" fill="#FFFFFF">
            <g id="UI/Dark/Logo" transform="translate(643.000000, 30.000000)">
                <path d="M137.117431,7.87138382 C137.331505,7.6573097 137.656641,7.60017107 137.936048,7.72666705 L157.242893,16.3221608 C157.506952,16.4409556 157.683135,16.7088841 157.683372,17.0225872 C157.683592,17.3133364 157.511638,17.5771758 157.243935,17.6993938 L137.950038,26.2657152 C137.674723,26.3878893 137.349499,26.3302585 137.13124,26.1197211 C136.913019,25.9091455 136.847743,25.5915675 136.962298,25.3085565 L140.211945,17.4110586 C140.322689,17.1471729 140.322464,16.8487724 140.21132,16.5847188 L136.949716,8.68229365 C136.834776,8.40679849 136.899528,8.0816294 137.117431,7.87138382 Z M117.398734,0 C127.121752,0 135,7.76522996 135,17.3487645 C135,26.932299 127.121752,34.6975289 117.398734,34.6975289 C107.675717,34.6975289 99.7974684,26.932299 99.7974684,17.3487645 C99.7974684,7.76522996 107.675717,0 117.398734,0 Z M127.42565,19.1456772 L127.42565,15.5519052 C127.42565,14.9636302 126.937329,14.4823143 126.340492,14.4823143 L121.392171,14.4823143 C120.795334,14.4823143 120.307012,14.0009984 120.307012,13.4127234 L120.307012,8.53538889 C120.307012,7.94711389 119.818691,7.46579799 119.221854,7.46579799 L115.575723,7.46579799 C114.978886,7.46579799 114.490564,7.94711389 114.490564,8.53538889 L114.490564,13.4127234 C114.490564,14.0009984 114.002243,14.4823143 113.405406,14.4823143 L108.457031,14.4823143 C107.860194,14.4823143 107.371873,14.9636302 107.371873,15.5519052 L107.371873,19.6804726 C107.371873,19.9746101 107.616033,20.2152681 107.914452,20.2152681 L113.405406,20.2152681 C114.002243,20.2152681 114.490564,20.696584 114.490564,21.284859 L114.490564,26.1621935 C114.490564,26.7504685 114.978886,27.2317844 115.575723,27.2317844 L119.221854,27.2317844 C119.818691,27.2317844 120.307012,26.7504685 120.307012,26.1621935 L120.307012,21.284859 C120.307012,20.696584 120.795334,20.2152681 121.392171,20.2152681 L126.340492,20.2152681 C126.937329,20.2152681 127.42565,19.7339522 127.42565,19.1456772 Z" id="saiba-mais"></path>
                <path d="M16.4196639,10.5114693 C16.2385986,10.8027571 16.048483,11.0212198 15.8493112,11.1668637 C15.6501394,11.3125077 15.3936341,11.3853285 15.0797876,11.3853285 C14.8021542,11.3853285 14.503401,11.2973366 14.1835191,11.1213502 C13.8636371,10.9453638 13.501512,10.7481406 13.0971329,10.5296747 C12.6927538,10.3112087 12.2310443,10.1139855 11.7119906,9.9379991 C11.1929368,9.76201267 10.6014658,9.67402078 9.93755983,9.67402078 C8.79081316,9.67402078 7.85970885,10.2040317 7.4567746,10.5114693 C7.05384034,10.8189068 6.73559418,11.1967788 6.73559418,12.0342314 C6.73559418,12.5682592 6.90458589,13.0112529 7.24257439,13.3632257 C7.58056288,13.7151986 8.02416613,14.0186189 8.57339743,14.2734958 C9.12262873,14.5283727 9.75031224,14.7620064 10.4564668,14.9744038 C11.1626213,15.1868012 11.8838538,15.4234691 12.6201859,15.6844145 C13.3565179,15.9453599 14.0777504,16.2518144 14.783905,16.6037873 C15.4900595,16.9557601 16.117743,17.4048222 16.6669743,17.950987 C17.2162056,18.4971518 17.6598089,19.1616423 17.9977973,19.9444785 C18.3357858,20.7273147 18.5047776,21.6709519 18.5047776,22.7754184 C18.5047776,24.0012549 18.2935379,25.1481838 17.8710523,26.2162394 C17.4485667,27.2842949 16.8359717,28.2157953 16.033249,29.0107685 C15.2305264,29.8057417 14.2407178,30.4307876 13.0637935,30.8859249 C11.8868693,31.3410622 10.5500242,31.5686275 9.05321798,31.5686275 C8.23238878,31.5686275 7.39648335,31.4836698 6.5454766,31.3137518 C5.69446986,31.1438339 4.87063526,30.9041318 4.07394809,30.5946385 C3.27726093,30.2851451 2.52886906,29.9180065 1.82875003,29.4932117 C1.12863101,29.0684168 0.51905376,28.5950811 0,28.0731903 L1.82875003,24.8508342 C1.96153123,24.6323683 2.14862919,24.4563845 2.39004955,24.3228776 C2.6314699,24.1893706 2.89099289,24.1226182 3.16862629,24.1226182 C3.53075682,24.1226182 3.89589963,24.2379179 4.26406567,24.4685208 C4.63223171,24.6991237 5.04867557,24.9539968 5.51340975,25.2331477 C5.97814393,25.5122985 6.51227845,25.7671716 7.11582933,25.9977745 C7.71938022,26.2283774 8.43155958,26.3436772 9.25238878,26.3436772 C10.3629224,26.3436772 11.172429,26.2632738 11.7119906,25.8718576 C12.2515521,25.4804415 12.7469309,24.6809225 12.7469309,23.6128669 C12.7469309,22.9938802 12.5779392,22.4902024 12.2399507,22.1018186 C11.9019622,21.7134347 11.458359,21.3918092 10.9091277,21.1369323 C10.3598964,20.8820554 9.73523057,20.6575243 9.03511155,20.4633324 C8.33499252,20.2691405 7.61677774,20.0537121 6.88044567,19.8170407 C6.14411359,19.5803692 5.42589881,19.2890857 4.72577979,18.9431814 C4.02566076,18.597277 3.40099497,18.1421465 2.85176366,17.5777762 C2.30253236,17.013406 1.85892912,16.3094708 1.52094062,15.4659496 C1.18295213,14.6224285 1.01396041,13.5816968 1.01396041,12.3437233 C1.01396041,11.3484896 1.21312922,10.3775446 1.6114728,9.43085898 C2.00981638,8.48417336 2.59525196,7.64066485 3.36779709,6.90030814 C4.14034222,6.15995144 5.08790289,5.5682818 6.21050754,5.12528148 C7.33311218,4.68228115 8.61865628,4.46078431 10.0671784,4.46078431 C10.8759366,4.46078431 11.6635587,4.52450258 12.4300683,4.65194103 C13.1965779,4.77937948 13.9238458,4.96750008 14.6118938,5.21630848 C15.2999418,5.46511689 15.9427139,5.76246881 16.5402293,6.10837317 C17.1377446,6.45427753 17.6718791,6.84568975 18.1426488,7.28262158 L16.4196639,10.5114693 Z M51.5527814,31.277341 L45.0549622,31.277341 L45.0549622,4.75207074 L51.5527814,4.75207074 L51.5527814,31.277341 Z M54.2379999,31.277341 L54.2379999,4.75207074 L63.9430496,4.75207074 C65.7657733,4.75207074 67.3168758,4.92198612 68.5964037,5.26182199 C69.8759315,5.60165785 70.9200589,6.08106197 71.7288171,6.70004872 C72.5375753,7.31903548 73.1260286,8.07151789 73.4941946,8.95751853 C73.8623606,9.84351918 74.0464409,10.8326694 74.0464409,11.924999 C74.0464409,12.5197118 73.961945,13.0931762 73.7929508,13.6454095 C73.6239565,14.1976428 73.3583981,14.7164915 72.9962676,15.2019713 C72.6341371,15.6874511 72.1694099,16.1274106 71.602072,16.5218629 C71.0347342,16.9163153 70.3527319,17.2591803 69.5560448,17.5504681 C71.2942713,17.975263 72.5798154,18.6640271 73.4127156,19.6167812 C74.2456159,20.5695354 74.6620597,21.7923193 74.6620597,23.2851697 C74.6620597,24.4139102 74.4447847,25.4637446 74.010228,26.4347042 C73.5756714,27.4056638 72.9389348,28.2522065 72.099999,28.9743577 C71.2610633,29.6965089 70.2259891,30.2608707 68.9947453,30.6674601 C67.7635015,31.0740494 66.357249,31.277341 64.7759457,31.277341 L54.2379999,31.277341 Z M60.7195393,20.3158 L60.7195393,26.3455664 L64.651449,26.3455664 C65.3893741,26.3455664 65.992371,26.2514388 66.4604578,26.0631806 C66.9285447,25.8749225 67.2947483,25.631298 67.5590797,25.3322999 C67.823411,25.0333017 68.0051361,24.6955496 68.1042604,24.3190333 C68.2033847,23.9425171 68.2529461,23.5604696 68.2529461,23.1728794 C68.2529461,22.7299191 68.1951244,22.3312609 68.0794795,21.9768926 C67.9638345,21.6225244 67.7655889,21.3235307 67.4847368,21.0799026 C67.2038847,20.8362744 66.8321743,20.6480192 66.3695944,20.5151311 C65.9070145,20.382243 65.3232914,20.3158 64.6184077,20.3158 L60.7195393,20.3158 Z M60.7036744,15.6126234 L63.5992921,15.6126234 C64.2135171,15.6126234 64.7674081,15.568511 65.2609818,15.480285 C65.7545555,15.3920589 66.1740868,15.2376657 66.5195883,15.0171006 C66.8650899,14.7965355 67.1283252,14.4932631 67.3093023,14.1072742 C67.4902793,13.7212853 67.5807664,13.2360494 67.5807664,12.651552 C67.5807664,12.0780828 67.5094735,11.6011179 67.3668856,11.2206432 C67.2242976,10.8401684 67.0049348,10.534139 66.7087906,10.3025456 C66.4126464,10.0709523 66.0369877,9.90553097 65.5818031,9.80627669 C65.1266185,9.7070224 64.5864376,9.65739601 63.9612443,9.65739601 L60.7036744,9.65739601 L60.7036744,15.6126234 Z M100.822785,31.3295527 L95.6158854,31.3295527 C95.0847606,31.3295527 94.6471928,31.2051504 94.3031688,30.956342 C93.9591448,30.7075336 93.7207458,30.3889423 93.5879646,30.0005584 L92.0308111,25.3763864 L82.8056453,25.3763864 L81.2484919,30.0005584 C81.1277817,30.3403943 80.8924004,30.6468488 80.5423409,30.9199312 C80.1922813,31.1930136 79.7637666,31.3295527 79.2567839,31.3295527 L74.1338982,31.3295527 L84.3459281,4.80428246 L90.6107549,4.80428246 L100.822785,31.3295527 Z M44.1120608,31.3295527 L38.9051614,31.3295527 C38.3740367,31.3295527 37.9364688,31.2051504 37.5924448,30.956342 C37.2484208,30.7075336 37.0100218,30.3889423 36.8772406,30.0005584 L35.3200871,25.3763864 L26.0949214,25.3763864 L24.5377679,30.0005584 C24.4170577,30.3403943 24.1816764,30.6468488 23.8316169,30.9199312 C23.4815574,31.1930136 23.0530427,31.3295527 22.5460599,31.3295527 L17.4231742,31.3295527 L27.6352041,4.80428246 L33.900031,4.80428246 L44.1120608,31.3295527 Z M84.3828242,20.1064378 L90.399003,20.1064378 L88.3734554,14.0421773 C88.2424491,13.657143 88.0887711,13.2037212 87.9124165,12.6818983 C87.736062,12.1600755 87.5622294,11.595198 87.3909136,10.9872491 C87.2296752,11.6053305 87.0634005,12.1778072 86.8920847,12.7046963 C86.7207689,13.2315854 86.5595329,13.6875403 86.4083718,14.0725746 L84.3828242,20.1064378 Z M28.0137311,20.1064378 L34.0299099,20.1064378 L32.0043623,14.0421773 C31.873356,13.657143 31.719678,13.2037212 31.5433234,12.6818983 C31.3669689,12.1600755 31.1931363,11.595198 31.0218205,10.9872491 C30.8605821,11.6053305 30.6943074,12.1778072 30.5229916,12.7046963 C30.3516758,13.2315854 30.1904398,13.6875403 30.0392787,14.0725746 L28.0137311,20.1064378 Z" id="SAIBA-Copy"></path>
            </g>
        </g>
    </g>
</svg>